<svg xmlns="http://www.w3.org/2000/svg" width="64" height="64" fill="none"><g clip-path="url(#a)"><path fill="#B477FF" d="M29.728 13.287c0 .183-.021 4.59-2.023 9.018-2.625 5.81-7.523 9.162-13.868 9.54 6.352.377 11.247 3.731 13.873 9.544 2.002 4.427 2.023 8.829 2.023 9.012v11.984h-6.306V50.4c-.011-1.247-.39-12.303-10.805-12.303v-6.215h-.006V25.59c10.416 0 10.8-11.057 10.806-12.315V1h6.306v12.287Zm10.785.147c.01 1.247.46 12.303 10.872 12.303v12.361c-10.416 0-10.799 11.057-10.804 12.314v11.973h-6.307V50.4c0-.183.021-4.59 2.024-9.012 2.502-5.54 7.07-8.845 12.99-9.47-5.935-.622-10.556-3.926-13.059-9.467-2.002-4.428-2.023-8.83-2.023-9.018V1.146h6.306v12.288Z"/></g><defs><clipPath id="a"><path fill="#fff" d="M0 0h64v64H0z"/></clipPath></defs></svg>